<svg width="399" height="427" viewBox="0 0 399 427" fill="none" xmlns="http://www.w3.org/2000/svg">
<g clip-path="url(#clip0_8679_19172)">
<path d="M286.791 79.4319L280.001 83.3499C278.821 84.0305 277.971 85.1634 277.646 86.4857C277.32 87.8079 277.548 89.2053 278.276 90.3558L287.776 105.356C288.944 107.199 291.17 108.073 293.279 107.515L306.374 104.048L317.062 125.07L307.143 129.038C305.895 129.538 304.9 130.518 304.384 131.759C303.867 133 303.873 134.397 304.397 135.634L311.397 152.134C312.444 154.6 315.248 155.803 317.756 154.863L324.691 152.261L330.662 172.981L321.305 178.97C319.444 180.161 318.586 182.431 319.192 184.555L325.307 205.957L219.162 296.181H187.5C186.241 296.181 185.032 296.655 184.111 297.504L183.932 297.679L154.401 327.768H99C97.7279 327.768 96.507 328.252 95.583 329.117L95.4023 329.296L61.5254 364.4C54.0616 360.27 44.0285 361.901 38.5557 368.928C32.875 376.222 33.6747 385.917 39.875 392.444C47.2806 400.239 60.9478 399.917 67.5293 390.961C71.9129 384.996 72.1951 377.436 68.6553 371.411L101.123 337.768H144.588L63.7129 420.172L-6.37109 393.777L8.12109 309.627L15.0645 303.695L79.8672 311.96C81.3027 312.143 82.747 311.695 83.8271 310.732L124.656 274.329C132.041 277.899 141.109 276.253 146.763 269.792C153.396 262.211 152.967 250.643 145.345 243.784C138.179 237.334 127.83 237.483 120.701 243.742C113.823 249.782 112.656 260.091 117.2 267.579L78.8721 301.751L25.3291 294.922L144.248 193.301C145.144 192.536 145.74 191.478 145.933 190.316L152.122 152.871L223.002 95.5013L268.23 63.9642L286.791 79.4319Z" fill="#8A68FF" stroke="#8A68FF" stroke-width="10" stroke-linecap="round" stroke-linejoin="round"/>
<path d="M20 296.5L82.5 308.181L128.5 264" stroke="white" stroke-width="10" stroke-linecap="round" stroke-linejoin="round"/>
<circle cx="133" cy="258.181" r="15.5" fill="white" stroke="white" stroke-width="3"/>
<circle cx="53" cy="380.181" r="15.5" fill="white" stroke="white" stroke-width="3"/>
<path d="M154.5 332.681H98.5L59 374" stroke="white" stroke-width="10" stroke-linecap="round" stroke-linejoin="round"/>
<path d="M393 420.5L244 292L239 287.181L315 221L393 278.444V420.5Z" fill="black" stroke="white" stroke-width="10" stroke-linecap="round" stroke-linejoin="round"/>
<path d="M130.5 195L94.5001 227C94.5001 227 90.5164 218.716 89.5001 213C88.1312 205.301 90.5001 193 90.5001 193C90.5001 193 89.1213 183.859 89.5001 178C90.1302 168.257 96.5001 154 96.5001 154C96.5001 154 96.4051 143.771 98.0001 137.5C100.153 129.037 108 117.5 108 117.5C108 117.5 110.134 106.324 113.5 100C116.638 94.104 124 86.5 124 86.5L148.5 80L188 86.5L203 95C203 95 209.083 102.355 208 107.5C207.275 110.945 205.508 112.529 203 115C199.392 118.555 191.5 121 191.5 121L215.5 126.5L221.5 133C221.5 133 223.829 141.21 221.5 145.5C219.507 149.173 213 152 213 152L198.5 154L206.5 163.5C206.5 163.5 208.631 170.77 206.5 174.5C204.117 178.67 195.5 180 195.5 180L178 178C178 178 182.039 188.743 179.5 190.5L173 195H130.5Z" fill="black"/>
<path d="M191.5 121C191.5 121 199.392 118.555 203 115C205.508 112.529 207.275 110.945 208 107.5C209.083 102.355 203 95 203 95L188 86.5L148.5 80L124 86.5C124 86.5 116.638 94.104 113.5 100C110.134 106.324 108 117.5 108 117.5C108 117.5 100.153 129.037 98.0001 137.5C96.4051 143.771 96.5001 154 96.5001 154C96.5001 154 90.1302 168.257 89.5001 178C89.1213 183.859 90.5001 193 90.5001 193C90.5001 193 88.1312 205.301 89.5001 213C90.5164 218.716 94.5001 227 94.5001 227L130.5 195H173C175.539 193.243 176.962 192.257 179.5 190.5C182.039 188.743 178 178 178 178L195.5 180C195.5 180 204.117 178.67 206.5 174.5C208.631 170.77 206.5 163.5 206.5 163.5L198.5 154L213 152C213 152 219.507 149.173 221.5 145.5C223.829 141.21 221.5 133 221.5 133L215.5 126.5L191.5 121ZM191.5 121L167 115L147 109L124 115M108 183.5L130.5 168L157 170.5M113.5 149.5L143 137.5L178 145.5" stroke="white" stroke-width="10"/>
<path d="M204.911 49.181C211.411 50.681 242.411 70.181 242.411 70.181L245.5 74L214.5 93L211.326 87.681C211.326 87.681 205.826 80.681 199.326 83.181C192.826 85.681 187.499 93 187.499 93C187.499 93 179 103 168 96C157 89 163.999 78.5 163.999 78.5C163.999 78.5 174.411 57.681 182.911 52.181C191.411 46.681 198.411 47.681 204.911 49.181Z" fill="black" stroke="white" stroke-width="10" stroke-linecap="round" stroke-linejoin="round"/>
</g>
<defs>
<clipPath id="clip0_8679_19172">
<rect width="399" height="427" fill="white"/>
</clipPath>
</defs>
</svg>
